<?xml version="1.0" encoding="utf-8"?>
<!-- Generator: Adobe Illustrator 23.1.0, SVG Export Plug-In . SVG Version: 6.00 Build 0)  -->
<svg version="1.1" id="Layer_1" xmlns="http://www.w3.org/2000/svg" xmlns:xlink="http://www.w3.org/1999/xlink" x="0px" y="0px"
	 viewBox="0 0 4500 2500" style="enable-background:new 0 0 4500 2500;" xml:space="preserve">
<style type="text/css">
	.st0{clip-path:url(#SVGID_2_);fill:none;stroke:#000000;stroke-width:5;stroke-miterlimit:10;}
	.st1{clip-path:url(#SVGID_2_);fill:none;stroke:#FF0000;stroke-width:6;stroke-miterlimit:10;}
	.st2{clip-path:url(#SVGID_2_);fill:none;stroke:#0000FF;stroke-width:6;stroke-miterlimit:10;}
	.st3{clip-path:url(#SVGID_2_);fill:#0000FF;}
	.st4{clip-path:url(#SVGID_2_);fill:#FF0000;}
	.st5{font-family:'TimesNewRomanPSMT';}
	.st6{font-size:86.8273px;}
	.st7{font-size:50.6203px;}
	.st8{font-size:91.7778px;}
	.st9{font-size:53.5065px;}
	.st10{clip-path:url(#SVGID_4_);fill:none;stroke:#000000;stroke-width:5;stroke-miterlimit:10;}
	.st11{clip-path:url(#SVGID_6_);fill:none;stroke:#000000;stroke-width:5;stroke-miterlimit:10;}
	.st12{clip-path:url(#SVGID_8_);fill:none;stroke:#000000;stroke-width:5;stroke-miterlimit:10;}
	.st13{clip-path:url(#SVGID_10_);fill:none;stroke:#000000;stroke-width:5;stroke-miterlimit:10;}
	.st14{font-family:'MyriadPro-Regular';}
	.st15{font-size:141.7323px;}
</style>
<g>
	<defs>
		<rect id="SVGID_1_" width="4500" height="2500"/>
	</defs>
	<clipPath id="SVGID_2_">
		<use xlink:href="#SVGID_1_"  style="overflow:visible;"/>
	</clipPath>
	<path class="st0" d="M1438.4,1901.3c0,48.3-39.2,87.5-87.5,87.5c-48.3,0-87.5-39.2-87.5-87.5c0-7.2,0.9-14.3,2.5-21h-107.5v-66.5
		h192.5c27.8,0,52.5,12.9,68.5,33.1C1431.3,1861.9,1438.4,1880.8,1438.4,1901.3z"/>
	<rect x="340.8" y="807.6" class="st0" width="720.5" height="134.3"/>
	<rect x="365.2" y="941.9" class="st0" width="71.3" height="732.4"/>
	<rect x="665.4" y="941.9" class="st0" width="71.3" height="732.4"/>
	<rect x="810.1" y="941.9" class="st0" width="71.3" height="732.4"/>
	<rect x="521.5" y="941.9" class="st0" width="71.3" height="732.4"/>
	<rect x="954.7" y="941.9" class="st0" width="71.3" height="732.4"/>
	<line class="st1" x1="1061.3" y1="874.7" x2="1818.2" y2="874.7"/>
	<polyline class="st2" points="340.8,874.7 156.8,874.7 156.8,1847 1158.5,1847 	"/>
	<path class="st0" d="M3040.8,1375.3l37.9-174.5c0-11.3-4.2-21.5-11.1-28.9c-6.9-7.4-16.3-12-26.8-12c-20.9,0-37.9,18.3-37.9,40.9
		L3040.8,1375.3l-37.9,174.5c0,11.3,4.3,21.5,11.1,28.9c6.9,7.4,16.4,12,26.8,12c21,0,37.9-18.3,37.9-40.9L3040.8,1375.3z"/>
	<path class="st0" d="M3040.8,1375.3l37.9,174.5c0,22.6-17,40.9-37.9,40.9c-10.5,0-20-4.6-26.8-12c-6.9-7.4-11.1-17.6-11.1-28.9
		L3040.8,1375.3z"/>
	<path class="st0" d="M3078.8,1200.8l-37.9,174.5l-37.9-174.5c0-22.6,17-40.9,37.9-40.9c10.5,0,20,4.6,26.8,12
		C3074.5,1179.3,3078.8,1189.5,3078.8,1200.8z"/>
	<polyline class="st0" points="4341.5,1375.3 4341.5,1015.5 3920.8,1015.5 	"/>
	<path class="st0" d="M3569.1,1167.4c117.2-50.6,234.5-101.3,351.7-151.9"/>
	<polyline class="st0" points="4341.3,1374.2 4341.3,1734 3920.5,1734 	"/>
	<path class="st0" d="M3576.8,1584.1c114.6,50,229.1,99.9,343.7,149.9"/>
	<line class="st0" x1="3944.4" y1="1111.4" x2="4270.6" y2="1111.4"/>
	<line class="st0" x1="3944.4" y1="1286.2" x2="4270.6" y2="1286.2"/>
	<line class="st0" x1="3944.4" y1="1460.9" x2="4270.6" y2="1460.9"/>
	<line class="st0" x1="3944.4" y1="1635.7" x2="4270.6" y2="1635.7"/>
	<polygon class="st3" points="1991.8,1743.8 2014.5,1762.6 2037.1,1743.8 2014.5,1792.6 	"/>
	<polygon class="st3" points="1991.8,1743.8 2014.5,1762.6 2037.1,1743.8 2014.5,1792.6 	"/>
	<polygon class="st3" points="639.8,1824.3 621.1,1847 639.8,1869.6 591,1847 	"/>
	<polygon class="st3" points="639.8,1824.3 621.1,1847 639.8,1869.6 591,1847 	"/>
	<polygon class="st3" points="2861,1824.3 2842.2,1847 2861,1869.6 2812.2,1847 	"/>
	<polygon class="st3" points="2861,1824.3 2842.2,1847 2861,1869.6 2812.2,1847 	"/>
	<polygon class="st4" points="1415.3,897.4 1434.1,874.7 1415.3,852.1 1464.1,874.7 	"/>
	<polygon class="st4" points="1415.3,897.4 1434.1,874.7 1415.3,852.1 1464.1,874.7 	"/>
	<polygon class="st4" points="3162.5,906 3181.3,883.3 3162.5,860.7 3211.3,883.3 	"/>
	<polygon class="st4" points="3162.5,906 3181.3,883.3 3162.5,860.7 3211.3,883.3 	"/>
	<polyline class="st0" points="2579.8,914.9 2578.9,914.9 2578.9,851.8 2579.9,851.8 	"/>
	<polyline class="st0" points="2694.8,851.8 2696.5,851.8 2696.5,914.9 2695.6,914.9 	"/>
	<line class="st0" x1="2578.9" y1="851.8" x2="2696.5" y2="914.9"/>
	<line class="st0" x1="2696.5" y1="851.8" x2="2578.9" y2="914.9"/>
	<polyline class="st0" points="2359.7,1878.5 2358.7,1878.5 2358.7,1815.4 2359.8,1815.4 	"/>
	<polyline class="st0" points="2474.7,1815.4 2476.4,1815.4 2476.4,1878.5 2475.5,1878.5 	"/>
	<line class="st0" x1="2358.7" y1="1815.4" x2="2476.4" y2="1878.5"/>
	<line class="st0" x1="2476.4" y1="1815.4" x2="2358.7" y2="1878.5"/>
	<polyline class="st0" points="1982.9,1572.8 1982.9,1571.9 2046,1571.9 2046,1572.9 	"/>
	<polyline class="st0" points="2046,1687.8 2046,1689.5 1982.9,1689.5 1982.9,1688.6 	"/>
	<line class="st0" x1="2046" y1="1571.9" x2="1982.9" y2="1689.5"/>
	<line class="st0" x1="2046" y1="1689.5" x2="1982.9" y2="1571.9"/>
	<polygon class="st3" points="1670.2,1824.3 1651.4,1847 1670.2,1869.6 1621.4,1847 	"/>
	<polygon class="st3" points="1670.2,1824.3 1651.4,1847 1670.2,1869.6 1621.4,1847 	"/>
	<path class="st2" d="M2476.4,1847h872.1c0-84.4,0-168.9,0-253.3"/>
	<line class="st2" x1="1415.3" y1="1847" x2="2358.7" y2="1847"/>
	<line class="st2" x1="2014.5" y1="1689.5" x2="2014.5" y2="1847"/>
	<line class="st2" x1="2014.5" y1="1454.3" x2="2014.5" y2="1571.9"/>
	<path class="st0" d="M2210.7,1315.3v81.9c-26.1,16.2-96.1,54.9-194.8,55.2c-100.4,0.4-171.7-39.1-197.7-55.2V799.6
		c28.6-16.4,97.4-51,192.6-51.8c99.4-0.9,171.4,35.5,199.9,51.8v83.7V1315.3z"/>
	<path class="st0" d="M3348.5,1593.7h-146c-6.1,0-11.5-2.5-15.5-6.4c-4-4-6.4-9.5-6.4-15.5c0-12.1,9.8-21.9,21.9-21.9h292
		c6.1,0,11.5-2.5,15.5-6.4c4-4,6.4-9.5,6.4-15.5c0-12.1-9.8-21.9-21.9-21.9h-292c-6.1,0-11.5-2.5-15.5-6.4c-4-4-6.4-9.5-6.4-15.5
		c0-12.1,9.8-21.9,21.9-21.9h292c12.1,0,21.9-9.8,21.9-21.9v0c0-12.1-9.8-21.9-21.9-21.9h-292c-6.1,0-11.5-2.5-15.5-6.4
		c-4-4-6.4-9.5-6.4-15.5c0-12.1,9.8-21.9,21.9-21.9h292c6.1,0,11.5-2.5,15.5-6.4c4-4,6.4-9.5,6.4-15.5c0-12.1-9.8-21.9-21.9-21.9
		h-292c-6.1,0-11.5-2.5-15.5-6.4c-4-4-6.4-9.5-6.4-15.5c0-12.1,9.8-21.9,21.9-21.9h292c6.1,0,11.5-2.5,15.5-6.4
		c4-4,6.4-9.5,6.4-15.5c0-12.1-9.8-21.9-21.9-21.9h-292c-6.1,0-11.5-2.5-15.5-6.4c-4-4-6.4-9.5-6.4-15.5c0-12.1,9.8-21.9,21.9-21.9
		h292c6.1,0,11.5-2.5,15.5-6.4c4-4,6.4-9.5,6.4-15.5c0-12.1-9.8-21.9-21.9-21.9h-146"/>
	<path class="st1" d="M3348.5,1154.8c0-90.5,0-181,0-271.5H2699"/>
	<line class="st1" x1="2210.7" y1="883.3" x2="2574.9" y2="883.3"/>
	<path class="st0" d="M3827.1,1454.3v-282.5c0-5.9-1.5-11.2-3.8-15c-2.4-3.8-5.6-6.2-9.2-6.2c-7.2,0-13.1,9.5-13.1,21.2v282.5
		c0,5.9-1.5,11.2-3.8,15c-2.4,3.8-5.6,6.2-9.2,6.2c-7.2,0-13.1-9.5-13.1-21.2v-282.5c0-11.7-5.8-21.2-13.1-21.2h0
		c-7.2,0-13.1,9.5-13.1,21.2v282.5"/>
	<path class="st0" d="M3748.8,1454.3v95.9c0,0-0.7,41.8,19.2,57.3"/>
	<path class="st0" d="M3827.1,1454.3v98.7c0,0-0.1,42.2-21.6,59"/>
	<line class="st0" x1="3768" y1="1607.5" x2="3768" y2="1736.5"/>
	<line class="st0" x1="3805.5" y1="1612" x2="3805.5" y2="1736.5"/>
</g>
<text transform="matrix(1 0 0 1 2860.9707 430.1006)" class="st5 st6">T</text>
<text transform="matrix(1 0 0 1 2914.0078 459.0142)" class="st5 st7">1</text>
<text transform="matrix(1 0 0 1 3585.5391 1398.8594)" class="st5 st8">T</text>
<text transform="matrix(1 0 0 1 3641.6016 1429.4209)" class="st5 st9">2</text>
<text transform="matrix(1 0 0 1 213.8887 1290.6104)" class="st5 st8">T</text>
<text transform="matrix(1 0 0 1 269.9502 1321.1719)" class="st5 st9">3</text>
<g>
	<defs>
		<rect id="SVGID_3_" width="4500" height="2500"/>
	</defs>
	<clipPath id="SVGID_4_">
		<use xlink:href="#SVGID_3_"  style="overflow:visible;"/>
	</clipPath>
	<line class="st10" x1="187.6" y1="1260.9" x2="125.3" y2="1260.9"/>
</g>
<text transform="matrix(1 0 0 1 1158.4834 807.6006)" class="st5 st8">T</text>
<text transform="matrix(1 0 0 1 1214.5449 838.1621)" class="st5 st9">4</text>
<g>
	<defs>
		<rect id="SVGID_5_" width="4500" height="2500"/>
	</defs>
	<clipPath id="SVGID_6_">
		<use xlink:href="#SVGID_5_"  style="overflow:visible;"/>
	</clipPath>
	<line class="st11" x1="1185.5" y1="852.1" x2="1185.5" y2="897.4"/>
</g>
<text transform="matrix(1 0 0 1 1982.9116 1142.5586)" class="st5 st8">T</text>
<text transform="matrix(1 0 0 1 2038.9731 1173.1201)" class="st5 st9">5</text>
<text transform="matrix(1 0 0 1 3421.9551 1019.0566)" class="st5 st8">T</text>
<text transform="matrix(1 0 0 1 3478.0176 1049.6182)" class="st5 st9">6</text>
<g>
	<defs>
		<rect id="SVGID_7_" width="4500" height="2500"/>
	</defs>
	<clipPath id="SVGID_8_">
		<use xlink:href="#SVGID_7_"  style="overflow:visible;"/>
	</clipPath>
	<line class="st12" x1="3324" y1="998.9" x2="3371.5" y2="998.9"/>
</g>
<text transform="matrix(1 0 0 1 768.6699 1988.79)" class="st5 st8">FM</text>
<text transform="matrix(1 0 0 1 901.2896 1988.79)" class="st5 st8">1</text>
<g>
	<defs>
		<rect id="SVGID_9_" width="4500" height="2500"/>
	</defs>
	<clipPath id="SVGID_10_">
		<use xlink:href="#SVGID_9_"  style="overflow:visible;"/>
	</clipPath>
	<line class="st13" x1="845.7" y1="1813.8" x2="845.7" y2="1878.5"/>
	
		<ellipse transform="matrix(0.9993 -3.837694e-02 3.837694e-02 0.9993 -13.6816 111.655)" class="st13" cx="2901.5" cy="412.2" rx="84.3" ry="84.3"/>
</g>
<text transform="matrix(1 0 0 1 1595.0211 411.1916)" class="st14 st15">Test</text>
</svg>
